    <svg xmlns="http://www.w3.org/2000/svg">
      <defs>
        <style type="text/css">
    @namespace "http://www.w3.org/2000/svg";
    .line                 {fill: none; stroke: #332900; stroke-width: 1;}
    .bold-line            {stroke: #141000; shape-rendering: crispEdges; stroke-width: 2;}
    .thin-line            {stroke: #1F1800; shape-rendering: crispEdges}
    .filled               {fill: #332900; stroke: none;}
    text.terminal         {font-family: Verdana, Sans-serif;
                            font-size: 12px;
                            fill: #141000;
                            font-weight: bold;
                          }
    text.nonterminal      {font-family: Verdana, Sans-serif;
                            font-size: 12px;
                            fill: #1A1400;
                            font-weight: normal;
                          }
    text.regexp           {font-family: Verdana, Sans-serif;
                            font-size: 12px;
                            fill: #1F1800;
                            font-weight: normal;
                          }
    rect, circle, polygon {fill: #332900; stroke: #332900;}
    rect.terminal         {fill: #FFDB4D; stroke: #332900; stroke-width: 1;}
    rect.nonterminal      {fill: #FFEC9E; stroke: #332900; stroke-width: 1;}
    rect.text             {fill: none; stroke: none;}
    polygon.regexp        {fill: #FFF4C7; stroke: #332900; stroke-width: 1;}
  </style>
      </defs>
    </svg>
    <svg xmlns="http://www.w3.org/2000/svg" width="319" height="81">
      <defs>
        <style type="text/css">
    @namespace "http://www.w3.org/2000/svg";
    .line                 {fill: none; stroke: #332900; stroke-width: 1;}
    .bold-line            {stroke: #141000; shape-rendering: crispEdges; stroke-width: 2;}
    .thin-line            {stroke: #1F1800; shape-rendering: crispEdges}
    .filled               {fill: #332900; stroke: none;}
    text.terminal         {font-family: Verdana, Sans-serif;
                            font-size: 12px;
                            fill: #141000;
                            font-weight: bold;
                          }
    text.nonterminal      {font-family: Verdana, Sans-serif;
                            font-size: 12px;
                            fill: #1A1400;
                            font-weight: normal;
                          }
    text.regexp           {font-family: Verdana, Sans-serif;
                            font-size: 12px;
                            fill: #1F1800;
                            font-weight: normal;
                          }
    rect, circle, polygon {fill: #332900; stroke: #332900;}
    rect.terminal         {fill: #FFDB4D; stroke: #332900; stroke-width: 1;}
    rect.nonterminal      {fill: #FFEC9E; stroke: #332900; stroke-width: 1;}
    rect.text             {fill: none; stroke: none;}
    polygon.regexp        {fill: #FFF4C7; stroke: #332900; stroke-width: 1;}
  </style>
      </defs>
      <polygon points="9 17 1 13 1 21"></polygon>
      <polygon points="17 17 9 13 9 21"></polygon>
      <a xmlns:xlink="http://www.w3.org/1999/xlink" xlink:href="#fhir-resource" xlink:title="fhir-resource">
        <rect x="31" y="3" width="100" height="32"></rect>
        <rect x="29" y="1" width="100" height="32" class="nonterminal"></rect>
        <text class="nonterminal" x="39" y="21">fhir-resource</text>
      </a>
      <rect x="151" y="3" width="26" height="32" rx="10"></rect>
      <rect x="149" y="1" width="26" height="32" class="terminal" rx="10"></rect>
      <text class="terminal" x="159" y="21">-</text>
      <rect x="217" y="3" width="52" height="32" rx="10"></rect>
      <rect x="215" y="1" width="52" height="32" class="terminal" rx="10"></rect>
      <text class="terminal" x="225" y="21">open</text>
      <rect x="217" y="47" width="54" height="32" rx="10"></rect>
      <rect x="215" y="45" width="54" height="32" class="terminal" rx="10"></rect>
      <text class="terminal" x="225" y="65">close</text>
      <svg:path xmlns:svg="http://www.w3.org/2000/svg" class="line" d="m17 17 h2 m0 0 h10 m100 0 h10 m0 0 h10 m26 0 h10 m20 0 h10 m52 0 h10 m0 0 h2 m-94 0 h20 m74 0 h20 m-114 0 q10 0 10 10 m94 0 q0 -10 10 -10 m-104 10 v24 m94 0 v-24 m-94 24 q0 10 10 10 m74 0 q10 0 10 -10 m-84 10 h10 m54 0 h10 m23 -44 h-3"></svg:path>
      <polygon points="309 17 317 13 317 21"></polygon>
      <polygon points="309 17 301 13 301 21"></polygon>
    </svg>
              <svg xmlns="http://www.w3.org/2000/svg" width="16" height="16">
                <g transform="scale(0.178)">
                  <circle cx="45" cy="45" r="45" style="stroke:none; fill:#FFCC00"></circle>
                  <circle cx="45" cy="45" r="42" style="stroke:#332900; stroke-width:2px; fill:#FFCC00"></circle>
                  <line x1="15" y1="15" x2="75" y2="75" stroke="#332900" style="stroke-width:9px;"></line>
                  <line x1="15" y1="75" x2="75" y2="15" stroke="#332900" style="stroke-width:9px;"></line>
                  <text x="7" y="54" style="font-size:26px; font-family:Arial, Sans-serif; font-weight:bold; fill: #332900">R</text>
                  <text x="64" y="54" style="font-size:26px; font-family:Arial, Sans-serif; font-weight:bold; fill: #332900">R</text>
                </g>
              </svg>
