    <svg xmlns="http://www.w3.org/2000/svg">
      <defs>
        <style type="text/css">
    @namespace "http://www.w3.org/2000/svg";
    .line                 {fill: none; stroke: #332900; stroke-width: 1;}
    .bold-line            {stroke: #141000; shape-rendering: crispEdges; stroke-width: 2;}
    .thin-line            {stroke: #1F1800; shape-rendering: crispEdges}
    .filled               {fill: #332900; stroke: none;}
    text.terminal         {font-family: Verdana, Sans-serif;
                            font-size: 12px;
                            fill: #141000;
                            font-weight: bold;
                          }
    text.nonterminal      {font-family: Verdana, Sans-serif;
                            font-size: 12px;
                            fill: #1A1400;
                            font-weight: normal;
                          }
    text.regexp           {font-family: Verdana, Sans-serif;
                            font-size: 12px;
                            fill: #1F1800;
                            font-weight: normal;
                          }
    rect, circle, polygon {fill: #332900; stroke: #332900;}
    rect.terminal         {fill: #FFDB4D; stroke: #332900; stroke-width: 1;}
    rect.nonterminal      {fill: #FFEC9E; stroke: #332900; stroke-width: 1;}
    rect.text             {fill: none; stroke: none;}
    polygon.regexp        {fill: #FFF4C7; stroke: #332900; stroke-width: 1;}
  </style>
      </defs>
    </svg>
    <svg xmlns="http://www.w3.org/2000/svg" width="371" height="213">
      <defs>
        <style type="text/css">
    @namespace "http://www.w3.org/2000/svg";
    .line                 {fill: none; stroke: #332900; stroke-width: 1;}
    .bold-line            {stroke: #141000; shape-rendering: crispEdges; stroke-width: 2;}
    .thin-line            {stroke: #1F1800; shape-rendering: crispEdges}
    .filled               {fill: #332900; stroke: none;}
    text.terminal         {font-family: Verdana, Sans-serif;
                            font-size: 12px;
                            fill: #141000;
                            font-weight: bold;
                          }
    text.nonterminal      {font-family: Verdana, Sans-serif;
                            font-size: 12px;
                            fill: #1A1400;
                            font-weight: normal;
                          }
    text.regexp           {font-family: Verdana, Sans-serif;
                            font-size: 12px;
                            fill: #1F1800;
                            font-weight: normal;
                          }
    rect, circle, polygon {fill: #332900; stroke: #332900;}
    rect.terminal         {fill: #FFDB4D; stroke: #332900; stroke-width: 1;}
    rect.nonterminal      {fill: #FFEC9E; stroke: #332900; stroke-width: 1;}
    rect.text             {fill: none; stroke: none;}
    polygon.regexp        {fill: #FFF4C7; stroke: #332900; stroke-width: 1;}
  </style>
      </defs>
      <polygon points="9 17 1 13 1 21"></polygon>
      <polygon points="17 17 9 13 9 21"></polygon>
      <a xmlns:xlink="http://www.w3.org/1999/xlink" xlink:href="#fhir-resource" xlink:title="fhir-resource">
        <rect x="51" y="3" width="100" height="32"></rect>
        <rect x="49" y="1" width="100" height="32" class="nonterminal"></rect>
        <text class="nonterminal" x="59" y="21">fhir-resource</text>
      </a>
      <rect x="51" y="47" width="28" height="32" rx="10"></rect>
      <rect x="49" y="45" width="28" height="32" class="terminal" rx="10"></rect>
      <text class="terminal" x="59" y="65">*</text>
      <rect x="191" y="3" width="26" height="32" rx="10"></rect>
      <rect x="189" y="1" width="26" height="32" class="terminal" rx="10"></rect>
      <text class="terminal" x="199" y="21">-</text>
      <rect x="257" y="3" width="52" height="32" rx="10"></rect>
      <rect x="255" y="1" width="52" height="32" class="terminal" rx="10"></rect>
      <text class="terminal" x="265" y="21">open</text>
      <rect x="257" y="47" width="54" height="32" rx="10"></rect>
      <rect x="255" y="45" width="54" height="32" class="terminal" rx="10"></rect>
      <text class="terminal" x="265" y="65">close</text>
      <rect x="257" y="91" width="66" height="32" rx="10"></rect>
      <rect x="255" y="89" width="66" height="32" class="terminal" rx="10"></rect>
      <text class="terminal" x="265" y="109">update</text>
      <rect x="257" y="135" width="60" height="32" rx="10"></rect>
      <rect x="255" y="133" width="60" height="32" class="terminal" rx="10"></rect>
      <text class="terminal" x="265" y="153">select</text>
      <rect x="257" y="179" width="28" height="32" rx="10"></rect>
      <rect x="255" y="177" width="28" height="32" class="terminal" rx="10"></rect>
      <text class="terminal" x="265" y="197">*</text>
      <svg:path xmlns:svg="http://www.w3.org/2000/svg" class="line" d="m17 17 h2 m20 0 h10 m100 0 h10 m-140 0 h20 m120 0 h20 m-160 0 q10 0 10 10 m140 0 q0 -10 10 -10 m-150 10 v24 m140 0 v-24 m-140 24 q0 10 10 10 m120 0 q10 0 10 -10 m-130 10 h10 m28 0 h10 m0 0 h72 m20 -44 h10 m26 0 h10 m20 0 h10 m52 0 h10 m0 0 h14 m-106 0 h20 m86 0 h20 m-126 0 q10 0 10 10 m106 0 q0 -10 10 -10 m-116 10 v24 m106 0 v-24 m-106 24 q0 10 10 10 m86 0 q10 0 10 -10 m-96 10 h10 m54 0 h10 m0 0 h12 m-96 -10 v20 m106 0 v-20 m-106 20 v24 m106 0 v-24 m-106 24 q0 10 10 10 m86 0 q10 0 10 -10 m-96 10 h10 m66 0 h10 m-96 -10 v20 m106 0 v-20 m-106 20 v24 m106 0 v-24 m-106 24 q0 10 10 10 m86 0 q10 0 10 -10 m-96 10 h10 m60 0 h10 m0 0 h6 m-96 -10 v20 m106 0 v-20 m-106 20 v24 m106 0 v-24 m-106 24 q0 10 10 10 m86 0 q10 0 10 -10 m-96 10 h10 m28 0 h10 m0 0 h38 m23 -176 h-3"></svg:path>
      <polygon points="361 17 369 13 369 21"></polygon>
      <polygon points="361 17 353 13 353 21"></polygon>
    </svg>
              <svg xmlns="http://www.w3.org/2000/svg" width="16" height="16">
                <g transform="scale(0.178)">
                  <circle cx="45" cy="45" r="45" style="stroke:none; fill:#FFCC00"></circle>
                  <circle cx="45" cy="45" r="42" style="stroke:#332900; stroke-width:2px; fill:#FFCC00"></circle>
                  <line x1="15" y1="15" x2="75" y2="75" stroke="#332900" style="stroke-width:9px;"></line>
                  <line x1="15" y1="75" x2="75" y2="15" stroke="#332900" style="stroke-width:9px;"></line>
                  <text x="7" y="54" style="font-size:26px; font-family:Arial, Sans-serif; font-weight:bold; fill: #332900">R</text>
                  <text x="64" y="54" style="font-size:26px; font-family:Arial, Sans-serif; font-weight:bold; fill: #332900">R</text>
                </g>
              </svg>
